<?xml version="1.0" encoding="utf-8"?>
<!-- Generator: Adobe Illustrator 19.0.0, SVG Export Plug-In . SVG Version: 6.00 Build 0)  -->
<svg version="1.1" id="图层_1" xmlns="http://www.w3.org/2000/svg" xmlns:xlink="http://www.w3.org/1999/xlink" x="0px" y="0px"
	 viewBox="74 377.3 744 87.6" style="enable-background:new 74 377.3 744 87.6;" xml:space="preserve">
<g>
	<path d="M738.8,431.2c0.2,0.1,0.4-0.2,0.2-0.3c-3.3-2.1-5.1-5.4-5.1-10.5c0-9.8,7.5-12.8,22.9-12.8c7.7,0,14.5,0.7,19.3,1.4
		c3.1,0.5,6-2,6-5.2v-4.1c-3.3-0.9-11.5-2.6-25.2-2.6c-15.3,0-25.8,2.9-31.1,9.8c-1.2,1.7-2.7,4.9-1.8,9.4
		C725.1,423,731,428.3,738.8,431.2z"/>
	<path d="M751.8,444.2c12.7,0,17.9-2.5,21.3-3.8l6.3,3.1c0.8,0.3,1.5,0.7,2.4,0.7c1,0,2.1-0.6,2.1-2.2v-16.5v-5.3V420
		c0-2.4-1.9-4.3-4.3-4.3h-22v4.5c0,3,2.4,5.4,5.3,5.4h8.9v6.2c-2.4,0.9-8.4,2-19.1,2c-10.8,0-19.3-2-24.9-6.5
		c-3.5-2.8-5.2-6-6.2-8.9c0,0.7-0.1,1.3-0.1,2C721.7,437,731.8,444.2,751.8,444.2z"/>
	<path d="M664,442.4c5,0.9,12.5,1.9,21.1,1.9c19.6,0,29.4-4.4,29.4-15.5c0-13.7-13.2-14.5-28-14.5c-4.7,0-11.5,0.5-15.4,0.8l1.2-7.4
		h33.1c3.3,0,5.9-2.6,5.9-5.9v-4h-46c-1.4,0-2.6,1-2.9,2.4l-2.8,16.5c-0.8,4.1,0.7,7.1,5.5,6.9c9.1-0.3,13.1-0.3,19.9-0.3
		c12.5,0,16.5,0.5,16.5,5.4c0,4.7-3.8,5.5-16.7,5.5c-9.1,0-20.2-1.7-26-3v5C658.9,439.2,661.1,441.8,664,442.4z"/>
	<path d="M642.5,453.2c7.6,6.7,18,10.4,29.1,10.4h104.2c20.6,0,42.8-13.5,42.8-43c0-17.1-7.4-27.2-13.6-32.7
		c-7.7-6.7-18-10.5-29.2-10.5H671.6c-20.5,0-42.7,13.5-42.7,43.1C628.9,437.7,636.3,447.8,642.5,453.2z M671.6,385.3h104.2
		c17.4,0,35,10.9,35,35.3c0,24.3-17.6,35.2-35,35.2H671.6c-17.4,0-34.9-10.9-34.9-35.2C636.7,396.2,654.2,385.3,671.6,385.3z"/>
</g>
<g>
	<polygon points="572.7,378.9 572.3,378.9 558.2,378.9 558.2,390.6 572.3,390.6 572.3,462.2 585.3,462.2 585.3,378.9 	"/>
	<g>
		<g>
			<g>
				<g>
					<g>
						<g>
							<g>
								<rect x="74.6" y="377.4" width="14.2" height="14.2"/>
							</g>
							<g>
								<rect x="74.6" y="405.8" width="14.2" height="57.9"/>
							</g>
							<g>
								<path d="M131,420.5c0-16,13-28.9,28.9-28.9c16,0,28.9,13,28.9,28.9H203c0-23.8-19.3-43.1-43.1-43.1
									c-23.8,0-43.1,19.3-43.1,43.1c0,23.8,19.3,43.1,43.1,43.1h0v-14.2h0C143.9,449.5,131,436.5,131,420.5z"/>
							</g>
							<g>
								<path d="M274.2,377.4c-23.8,0-43.1,19.3-43.1,43.1c0,23.8,19.3,43.1,43.1,43.1c23.8,0,43.1-19.3,43.1-43.1
									C317.4,396.7,298,377.4,274.2,377.4z M274.2,449.5c-16,0-28.9-13-28.9-28.9c0-16,13-28.9,28.9-28.9c16,0,28.9,13,28.9,28.9
									C303.2,436.5,290.2,449.5,274.2,449.5z"/>
							</g>
							<g>
								<path d="M431.2,414c-3.2-20.7-21-36.6-42.6-36.6c-23.8,0-43.1,19.3-43.1,43.1v0v0c0,23.8,19.3,43.1,43.1,43.1
									c23.8,0,43.1-19.3,43.1-43.1C431.7,418.3,431.5,416.1,431.2,414z M388.5,449.5c-16,0-28.9-13-28.9-28.9
									c0-16,13-28.9,28.9-28.9s28.9,13,28.9,28.9C417.5,436.5,404.5,449.5,388.5,449.5z"/>
							</g>
							<g>
								<rect x="156.7" y="435.2" transform="matrix(0.7053 0.7089 -0.7089 0.7053 367.0713 1.6088)" width="49.9" height="14.2"/>
							</g>
						</g>
					</g>
				</g>
			</g>
		</g>
		<polygon points="546.6,378.9 543.5,378.9 543.5,378.9 477.9,378.9 477.9,390.6 523,390.6 475,462.2 485.8,462.2 490.8,462.2 
			546.6,462.2 546.6,450.5 498.6,450.5 		"/>
	</g>
</g>
</svg>
