<?xml version="1.0" encoding="utf-8"?>
<!-- Generator: Adobe Illustrator 22.0.0, SVG Export Plug-In . SVG Version: 6.00 Build 0)  -->
<svg version="1.1" id="图层_1" xmlns="http://www.w3.org/2000/svg" xmlns:xlink="http://www.w3.org/1999/xlink" x="0px" y="0px"
	 viewBox="0 0 413.7 56" style="enable-background:new 0 0 413.7 56;" xml:space="preserve">
<style type="text/css">
	.st0{fill:#FFFFFF;}
	.st1{enable-background:new    ;}
	.st2{fill:none;stroke:#FFFFFF;stroke-miterlimit:10;}
</style>
<g>
	<rect x="-27" class="st0" width="21" height="56"/>
</g>
<g>
	<rect x="-48" class="st0" width="21" height="5"/>
</g>
<g>
	<rect x="-48" y="51" class="st0" width="21" height="5"/>
</g>
<text transform="matrix(1 0 0 1 -195.7603 31.8022)" class="st1"><tspan x="0" y="0" class="st0" style="font-family:'AdobeSongStd-Light-GBpc-EUC-H'; font-size:12px;">对于型号字，高度必须为</tspan><tspan x="132" y="0" class="st0" style="font-family:'ArialMT'; font-size:12px;">56PX</tspan></text>
<text transform="matrix(1 0 0 1 -270.7603 11.8022)" class="st1"><tspan x="0" y="0" class="st0" style="font-family:'AdobeSongStd-Light-GBpc-EUC-H'; font-size:12px;">型号字需要距离顶部</tspan><tspan x="108" y="0" class="st0" style="font-family:'ArialMT'; font-size:12px;">16PX</tspan></text>
<text transform="matrix(1 0 0 1 -119.7603 -164.1978)" class="st0" style="font-family:'AdobeSongStd-Light-GBpc-EUC-H'; font-size:12px;">【型号字输出规范】</text>
<text transform="matrix(1 0 0 1 -119.7603 -143.7979)" class="st1"><tspan x="0" y="0" class="st0" style="font-family:'ArialMT'; font-size:12px;">1</tspan><tspan x="6.7" y="0" class="st0" style="font-family:'AdobeSongStd-Light-GBpc-EUC-H'; font-size:12px;">）输出格式：</tspan><tspan x="78.7" y="0" class="st0" style="font-family:'ArialMT'; font-size:12px;">SVG</tspan></text>
<text transform="matrix(1 0 0 1 -119.7603 -123.3978)" class="st1"><tspan x="0" y="0" class="st0" style="font-family:'ArialMT'; font-size:12px;">2</tspan><tspan x="6.7" y="0" class="st0" style="font-family:'AdobeSongStd-Light-GBpc-EUC-H'; font-size:12px;">）输出尺寸：画板高度必须为</tspan><tspan x="162.7" y="0" class="st0" style="font-family:'ArialMT'; font-size:12px;">56PX</tspan><tspan x="192" y="0" class="st0" style="font-family:'AdobeSongStd-Light-GBpc-EUC-H'; font-size:12px;">，宽度可以延长。内容</tspan></text>
<text transform="matrix(1 0 0 1 187.1397 -123.3978)" class="st1"><tspan x="0" y="0" class="st0" style="font-family:'AdobeSongStd-Light-GBpc-EUC-H'; font-size:12px;">距离画板顶部需要保持</tspan><tspan x="120" y="0" class="st0" style="font-family:'ArialMT'; font-size:12px;">16PX</tspan><tspan x="149.4" y="0" class="st0" style="font-family:'AdobeSongStd-Light-GBpc-EUC-H'; font-size:12px;">距离（依据参考线）</tspan></text>
<text transform="matrix(1 0 0 1 440.5397 -123.3978)" class="st0" style="font-family:'AdobeSongStd-Light-GBpc-EUC-H'; font-size:12px;">。</text>
<text transform="matrix(1 0 0 1 -119.7603 -102.9978)" class="st1"><tspan x="0" y="0" class="st0" style="font-family:'ArialMT'; font-size:12px;">3</tspan><tspan x="6.7" y="0" class="st0" style="font-family:'AdobeSongStd-Light-GBpc-EUC-H'; font-size:12px;">）内容形式：必须为矢量图形！放入</tspan><tspan x="198.7" y="0" class="st0" style="font-family:'ArialMT'; font-size:12px;">JPG/PNG</tspan><tspan x="251.3" y="0" class="st0" style="font-family:'AdobeSongStd-Light-GBpc-EUC-H'; font-size:12px;">无效；</tspan></text>
<text transform="matrix(1 0 0 1 -119.7603 -82.5978)" class="st1"><tspan x="0" y="0" class="st0" style="font-family:'ArialMT'; font-size:12px;">4</tspan><tspan x="6.7" y="0" class="st0" style="font-family:'AdobeSongStd-Light-GBpc-EUC-H'; font-size:12px;">）颜色调整：按照图片需要，对矢量图形统一填充颜色。一般为白色或黑色。</tspan><tspan x="414.7" y="0" class="st0" style="font-family:'ArialMT'; font-size:12px;">iQOO</tspan><tspan x="445.3" y="0" class="st0" style="font-family:'AdobeSongStd-Light-GBpc-EUC-H'; font-size:12px;">可能会出现品牌黄。</tspan></text>
<text transform="matrix(1 0 0 1 -119.7603 -62.1978)" class="st1"><tspan x="0" y="0" class="st0" style="font-family:'ArialMT'; font-size:12px;">       </tspan><tspan x="23.3" y="0" class="st0" style="font-family:'AdobeSongStd-Light-GBpc-EUC-H'; font-size:12px;">特别注意在填充颜色的时候，白色的图形要拖到灰色区域测试效果！容易出现误删蒙版的情况。</tspan></text>
<text transform="matrix(1 0 0 1 -119.7603 -41.7979)" class="st1"><tspan x="0" y="0" class="st0" style="font-family:'ArialMT'; font-size:12px;">5</tspan><tspan x="6.7" y="0" class="st0" style="font-family:'AdobeSongStd-Light-GBpc-EUC-H'; font-size:12px;">）留白问题：背景不要填充任何色块。</tspan><tspan x="210.7" y="0" class="st0" style="font-family:'ArialMT'; font-size:12px;">***</tspan><tspan x="224.7" y="0" class="st0" style="font-family:'AdobeSongStd-Light-GBpc-EUC-H'; font-size:12px;">特别注意！左右和底部保持顶边，不要留出空白！</tspan><tspan x="488.7" y="0" class="st0" style="font-family:'ArialMT'; font-size:12px;">***</tspan></text>
<line class="st2" x1="-38.5" y1="4" x2="-38.5" y2="20.5"/>
<line class="st2" x1="-38.5" y1="35" x2="-38.5" y2="51.5"/>
<rect x="-120" class="st0" width="58" height="16"/>
<g>
	<g>
		<g>
			<g>
				<g>
					<path d="M18.6,35.8L-0.2,16.9h9.9l13.6,13.8c0.9,0.9,1.8,1.3,2.9,1.3s1.9-0.4,2.9-1.3l13.6-13.8h9.9L33.8,35.8L53,55.1H43
						L29.1,41c-0.9-0.9-1.7-1.4-2.9-1.4c-1.1,0-1.9,0.4-2.9,1.4L9.5,55.1h-9.9L18.6,35.8z"/>
					<path d="M58.5,53.8v-6.5c4.6,1,13.5,2.3,21.4,2.3c12.9,0,16.6-1.6,16.6-6.2c0-4.8-3.7-6.1-15.6-6.1c-6.5,0-10.9,0.3-17.2,0.6
						c-3.8,0.2-5-1.4-4.5-4.6l2.6-16.5h40v6.4h-34l-1.5,8.7c4.5-0.4,10.5-0.8,16.8-0.8c12.7,0,21.6,1.9,21.6,12
						c0,9.5-8.6,12.7-24.7,12.7C70.6,56,62,54.7,58.5,53.8z"/>
					<path d="M111.3,36c0-12.4,6.9-19.9,26.1-19.9c19.1,0,26,7.5,26,19.9c0,12.3-6.9,19.9-26,19.9C118.3,56,111.3,48.3,111.3,36z
						 M155.3,36c0-8.5-4.2-13.1-17.9-13.1c-13.8,0-18.1,4.6-18.1,13.1s4.3,13.2,18.1,13.2C151.1,49.2,155.3,44.5,155.3,36z"/>
				</g>
				<g>
					<path d="M171.4,55l8.5-11.3h6.7L178,55H171.4z M173.5,17.4h24.4c3.2,0,7.6-0.1,10.8-0.3c2.9-0.3,5.8-0.8,8.5-1.5v4.8
						c-2.4,0.5-5.2,1-7.7,1.3c-3.7,0.4-7.9,0.4-11.6,0.4h-2.5c-2.4,1.9-5.3,3.8-7.6,5c3.1,0.1,6.7-0.1,10.4-0.4l4.4-2.6h9.5
						c-6.9,4.7-14.5,9-22.2,12.5c5.5-0.1,11.2-0.5,16.4-1.1l-2.8-3.5h6.6l8.4,10.2h-6.7l-2.1-2.6c-3.3,0.4-6.6,0.8-10,1v10.2
						c0,2.1-0.5,3.5-1.4,4.4c-1,0.9-2.5,1.2-4.5,1c-2.7-0.1-5.4-0.8-8.3-2.1v-5c2.5,1.3,4.3,2,6.5,2.2c1,0.1,1.6-0.1,1.6-1.3v-9
						c-6.2,0.3-12.3,0.3-18.4,0.3c-0.8,0-1.4-0.6-1.4-1.3c-0.2-0.7,0.2-1.4,1-1.8c5.1-2.1,10.4-4.5,15.5-7.2
						c-4.4,0.4-8.8,0.5-13.4,0.5c-1,0-1.6-0.7-1.7-1.4c-0.1-0.7,0.4-1.4,1.2-1.7c3.9-1.9,7.7-4.2,10.7-6.4h-13.4v-4.6H173.5z
						 M204.3,43.5h6.5l8.8,11.5h-6.5L204.3,43.5z"/>
					<path d="M234.7,21.9h-7.6V17h26v4.9h-12.5c-0.5,1.2-1,2.4-1.6,3.6h10.4c1.7,0,2.2,0.8,2,2.2c-0.5,3.1-1.4,5.9-2.3,8.5
						c-2.8,8.1-7.7,14.5-15.3,20.1l-6.3-2c5.8-4.2,9.7-8,12.5-12.2c-1.9-1.2-4.2-2.6-5.9-3.4l2.3-4.2c1.9,0.8,4.3,2,6.2,3.2
						c1.1-2.3,2-4.8,2.8-7.5h-8.8c-1.5,2.8-3.1,5.4-4.5,7.6h-6C229.2,32.6,232.5,26.7,234.7,21.9z M255.3,19.2h5.6v24h-5.6
						L255.3,19.2L255.3,19.2z M261.1,55.4c-1.4-0.4-3.5-1.2-4.7-1.8v-5.4c2.6,1.4,5.6,2.6,8.3,2.9c1.1,0.1,1.3-0.3,1.3-1.4V14.9h5.9
						v35.7c0,2.3-0.5,3.7-1.4,4.5c-1.1,0.9-2.7,1.2-5,1C264,56.1,262.5,55.8,261.1,55.4z"/>
				</g>
			</g>
		</g>
	</g>
	<g>
		<g>
			<g>
				<g>
					<g>
						<rect x="290.7" y="16.2" width="1.8" height="39.7"/>
					</g>
				</g>
			</g>
			<g>
				<path d="M335.9,31.2c-7.2,0-12.9,0.4-18.1,0.9l1.5-9.6H354v-5.6h-39.7l-2.4,15.9c-0.3,1.7-0.1,3,0.7,3.8c0.8,0.9,2.2,1.2,4.2,1
					c4.7-0.4,10-0.9,17.2-0.9c13.9,0,16.5,2.3,16.5,6.9c0,4.4-3,7-18.1,7c-8.4,0-16.8-1.3-20.5-2l-0.8-0.2V54l0.5,0.1
					c3,0.7,11.3,2,20.7,2c12.8,0,24.5-1.5,24.5-12.6C356.8,34.9,350.5,31.2,335.9,31.2z"/>
				<path d="M390.2,33.6v5.5H407v9.6c-3.2,0.8-9.9,1.9-17,1.9c-15,0-21.5-4.3-21.5-14.5c0-9.9,6.7-14.4,21.6-14.4
					c8.1,0,17.7,1.8,21.1,2.8l0.8,0.2V19l-0.5-0.1c-1.7-0.5-10.6-2.8-21.4-2.8c-19,0-27.9,6.3-27.9,20s8.8,20,27.8,20
					c6.1,0,13.4-1.4,17.9-2.8l1.4,1.3c0.7,0.8,1.4,1.5,2.2,1.5c0.7,0,1.5-0.3,1.5-1.8V33.6H390.2z"/>
			</g>
		</g>
	</g>
</g>
</svg>
